<?xml version="1.0" encoding="UTF-8" standalone="no"?>
<svg
   viewBox="0 0 32.14838 31.355282"
   width="32.14838"
   height="31.355282"
   version="1.1"
   id="svg186"
   xmlns="http://www.w3.org/2000/svg"
   xmlns:svg="http://www.w3.org/2000/svg">
  <defs
     id="defs190" />
  <rect
     style="fill:#000000;fill-rule:evenodd;stroke:none;stroke-width:1.31932"
     id="rect163"
     width="32.370968"
     height="31.519102"
     x="-0.13105646"
     y="-3.9757037e-07" />
  <path
     d="M 16.074191,0 C 24.955181,0 32.14838,7.1931996 32.14838,16.074189 A 16.10031,16.10031 0 0 1 21.197839,31.324576 c -0.80371,0.160742 -1.105101,-0.341577 -1.105101,-0.763524 0,-0.542504 0.02009,-2.270479 0.02009,-4.420402 0,-1.506955 -0.502318,-2.471407 -1.085008,-2.973725 3.576507,-0.401855 7.333849,-1.768161 7.333849,-7.936631 0,-1.768161 -0.622875,-3.194745 -1.647604,-4.319938 0.160742,-0.401855 0.723338,-2.0494593 -0.160742,-4.2596603 0,0 -1.346213,-0.4420402 -4.420402,1.6476044 -1.285935,-0.3616693 -2.652241,-0.5425039 -4.018547,-0.5425039 -1.366306,0 -2.732613,0.1808346 -4.018548,0.5425039 C 9.0216408,6.2287482 7.6754275,6.6506957 7.6754275,6.6506957 6.7913471,8.8608967 7.3539437,10.508501 7.5146856,10.910356 c -1.0247296,1.125193 -1.6476044,2.57187 -1.6476044,4.319938 0,6.148377 3.737249,7.534776 7.3137558,7.936631 -0.462133,0.401855 -0.88408,1.1051 -1.024729,2.149923 -0.924266,0.421947 -3.2349309,1.1051 -4.6816079,-1.326121 -0.301391,-0.482226 -1.2055642,-1.667697 -2.4714066,-1.647604 -1.3462133,0.02009 -0.5425038,0.763524 0.020093,1.064915 0.683153,0.381762 1.4667697,1.808346 1.6476044,2.270479 0.3214837,0.904173 1.366306,2.632148 5.4049461,1.888717 0,1.346213 0.02009,2.612056 0.02009,2.993818 0,0.421947 -0.301391,0.904173 -1.1051,0.763524 A 16.064143,16.064143 0 0 1 2.2138349e-6,16.074189 C 2.2138349e-6,7.1931996 7.1932018,0 16.074191,0 Z"
     id="path184"
     style="stroke-width:2.00927;fill:#ffffff" />
</svg>
